<svg xmlns="http://www.w3.org/2000/svg" xmlns:xlink="http://www.w3.org/1999/xlink" width="158" height="158" viewBox="0 0 158 158">
  <defs>
    <filter id="Rectangle_3312" x="0" y="0" width="158" height="158" filterUnits="userSpaceOnUse">
      <feOffset dy="10" input="SourceAlpha"/>
      <feGaussianBlur stdDeviation="5" result="blur"/>
      <feFlood flood-opacity="0.09"/>
      <feComposite operator="in" in2="blur"/>
      <feComposite in="SourceGraphic"/>
    </filter>
  </defs>
  <g id="Group_6186" data-name="Group 6186" transform="translate(-456 -2213)">
    <g transform="matrix(1, 0, 0, 1, 456, 2213)" filter="url(#Rectangle_3312)">
      <rect id="Rectangle_3312-2" data-name="Rectangle 3312" width="128" height="128" rx="11" transform="translate(15 5)" fill="#fff"/>
    </g>
    <g id="Group_6084" data-name="Group 6084" transform="translate(499.479 2239.497)">
      <path id="Path_7542" data-name="Path 7542" d="M266.175,115.506c0-2.278-.018-4.556.008-6.833.013-1.106.033-2.208,1.3-2.791,1.038-.477.377-1.3.169-1.9a24.16,24.16,0,0,0-4.994-8.231,23.8,23.8,0,0,1,12.8-39.383,22.513,22.513,0,0,1,17.855,3.5,3.25,3.25,0,0,0,3.443.541,6.018,6.018,0,0,1,4.5-.041c3.57,1.129,7.167,2.175,10.769,3.2,1.348.383,2.277,1.052,2.255,2.559-.073,4.989.43,10-.308,14.963C312.9,88.3,305.292,95.6,298.056,96.43a2.6,2.6,0,0,0-1.824,1.083,22.181,22.181,0,0,0-3.648,6.751c-.17.5-.4,1.142.119,1.415,1.792.949,1.377,2.591,1.387,4.08.029,4.261-.03,8.523.025,12.784.024,1.851-.686,2.8-2.6,2.613a2.034,2.034,0,0,0-2.425,1.662c-.837,2.75-2.626,3.995-5.633,3.685a34.869,34.869,0,0,0-7.044,0c-2.716.274-4.183-1.039-4.98-3.327-.5-1.434-1.166-2.253-2.82-2.038-1.706.221-2.411-.771-2.42-2.358-.015-2.425,0-4.85,0-7.274h-.014m24.363-53.493a2.96,2.96,0,0,0-1.851-1.418,20.9,20.9,0,0,0-24.309,32.718,27.81,27.81,0,0,1,6.312,10.741,2.187,2.187,0,0,0,2.492,1.86c4.631-.075,9.266-.085,13.9,0a2.3,2.3,0,0,0,2.611-2.023,19.406,19.406,0,0,1,3.625-7.253c1.166-1.43.964-2.123-.545-3.17-4.467-3.1-8.067-6.929-8.762-12.646-.6-4.976-.17-9.985-.229-14.979-.014-1.227.786-1.805,1.847-2.169a26.689,26.689,0,0,0,4.912-1.663M311.2,74.2c0-1.911-.052-3.824.017-5.733a2.3,2.3,0,0,0-1.944-2.689c-2.984-.779-5.928-1.713-8.88-2.61a4.4,4.4,0,0,0-2.6-.051c-3.17.938-6.328,1.921-9.517,2.786a2.063,2.063,0,0,0-1.667,2.419c.055,2.645.145,5.3-.009,7.938-.486,8.33,4.175,13.216,10.969,16.745a2.949,2.949,0,0,0,2.721.1c7.04-2.979,10.912-8.707,10.912-16.258q0-1.323,0-2.646m-30.886,39.936c-3.077,0-6.155.008-9.232,0-.983,0-1.766.175-1.76,1.4s.81,1.382,1.782,1.381q9.122-.011,18.245,0c.913,0,1.79.017,1.84-1.29.053-1.4-.812-1.5-1.861-1.494-3,.016-6.009.006-9.013.007m-.009-2.889c3.014,0,6.028,0,9.042,0,.911,0,1.858,0,1.8-1.321-.05-1.189-.948-1.139-1.758-1.14q-9.041-.015-18.083,0c-.866,0-1.908-.113-1.928,1.205s1,1.248,1.884,1.253c3.014.015,6.028.006,9.041.006m.113,8.561c-3.087,0-6.175-.008-9.263.005-.815,0-1.726-.023-1.778,1.137-.059,1.3.907,1.321,1.818,1.322q9.152.008,18.3,0c.854,0,1.669-.081,1.655-1.251s-.858-1.206-1.695-1.209c-3.014-.008-6.028,0-9.042,0m-.147,5.357c-1.539,0-3.078-.033-4.615.017-.574.019-1.484-.326-1.532.686a1.407,1.407,0,0,0,1.068,1.51,44.9,44.9,0,0,0,10.061-.057,1.3,1.3,0,0,0,.908-1.576c-.129-.641-.772-.566-1.274-.571-1.538-.012-3.077,0-4.615-.01" transform="translate(-243.904 -44.758)" fill="#019444"/>
      <path id="Path_7543" data-name="Path 7543" d="M250.794,70.012c-.346,1.19-1.054,1.733-2.146,1.2-1.373-.671-2.685-1.474-3.989-2.277a1.338,1.338,0,0,1-.633-1.7,1.135,1.135,0,0,1,1.362-.843,14.115,14.115,0,0,1,5.086,2.883c.194.159.228.512.319.733" transform="translate(-237.833 -49.886)" fill="#019444"/>
      <path id="Path_7544" data-name="Path 7544" d="M245.65,131.535a1.452,1.452,0,0,1-1.564-.863,1.206,1.206,0,0,1,.427-1.559c1.414-.889,2.867-1.721,4.343-2.5a1.241,1.241,0,0,1,1.584.361,1.132,1.132,0,0,1,.057,1.6,17.149,17.149,0,0,1-4.847,2.965" transform="translate(-237.851 -79.124)" fill="#019444"/>
      <path id="Path_7545" data-name="Path 7545" d="M272.622,47.693c.022.818-.185,1.263-.687,1.525a1.185,1.185,0,0,1-1.578-.3A18.2,18.2,0,0,1,267.73,44.4a1.229,1.229,0,0,1,.577-1.511,1.093,1.093,0,0,1,1.424.013,14.522,14.522,0,0,1,2.891,4.789" transform="translate(-249.368 -38.347)" fill="#019444"/>
      <path id="Path_7546" data-name="Path 7546" d="M300.036,37.723a2.8,2.8,0,0,1,0-.436c.188-1.17-.557-3.085,1.464-3,1.844.08,1.318,1.921,1.4,3.145a14.078,14.078,0,0,1-.081,2.61c-.107.868-.562,1.548-1.57,1.434-.883-.1-1.165-.777-1.187-1.574-.02-.727,0-1.454,0-2.181h-.022" transform="translate(-265.122 -34.285)" fill="#019444"/>
      <path id="Path_7547" data-name="Path 7547" d="M332.755,44.417a15.287,15.287,0,0,1-2.779,4.683,1.15,1.15,0,0,1-1.6.036,1.191,1.191,0,0,1-.467-1.544q1.176-2.215,2.509-4.346a1.2,1.2,0,0,1,1.552-.447c.6.259.843.77.787,1.618" transform="translate(-278.62 -38.369)" fill="#019444"/>
      <path id="Path_7548" data-name="Path 7548" d="M235.754,97.538c.728,0,1.458-.043,2.182.011.808.061,1.412.469,1.414,1.353a1.351,1.351,0,0,1-1.408,1.385,41.009,41.009,0,0,1-4.36.013c-.871-.043-1.592-.511-1.518-1.505s.846-1.268,1.725-1.283c.655-.011,1.31,0,1.965,0v.029" transform="translate(-232.059 -65.039)" fill="#019444"/>
      <path id="Path_7549" data-name="Path 7549" d="M339.843,86.487a9.237,9.237,0,1,1-9.316-9.445,9.388,9.388,0,0,1,9.316,9.445m-2.9,0a6.4,6.4,0,0,0-6.352-6.537,6.436,6.436,0,1,0,6.352,6.537" transform="translate(-275.504 -55.084)" fill="#019444"/>
      <path id="Path_7550" data-name="Path 7550" d="M339.524,91.693a1.709,1.709,0,0,1-.981,1.5c-1.141.646-2.3,1.253-3.449,1.891a1.851,1.851,0,0,1-2.874-.924c-.419-.818-1.168-1.648-.394-2.6.736-.905,1.513-.386,2.329.031,1.2.615,2.019-.488,2.992-.859,1.21-.461,2.151-.5,2.377.964" transform="translate(-280.426 -61.604)" fill="#019444"/>
    </g>
  </g>
</svg>
