<svg id="Group_6036" data-name="Group 6036" xmlns="http://www.w3.org/2000/svg" xmlns:xlink="http://www.w3.org/1999/xlink" width="223.872" height="55.31" viewBox="0 0 223.872 55.31">
  <defs>
    <clipPath id="clip-path">
      <rect id="Rectangle_119" data-name="Rectangle 119" width="223.872" height="55.31" fill="none"/>
    </clipPath>
  </defs>
  <text id="Ozone" transform="translate(60.815 41.577)" font-size="44" font-family="Gotham-Bold, Gotham" font-weight="700"><tspan x="0" y="0" letter-spacing="-0.065em">Ozon</tspan><tspan y="0">e</tspan></text>
  <g id="Group_6035" data-name="Group 6035">
    <g id="Group_6034" data-name="Group 6034" clip-path="url(#clip-path)">
      <text id="X" transform="translate(194.04 41.577)" fill="#6d6e71" font-size="44" font-family="Gotham-Bold, Gotham" font-weight="700"><tspan x="0" y="0">X</tspan></text>
      <path id="Path_7497" data-name="Path 7497" d="M32.084.02A27.654,27.654,0,1,1,7.776,40.545,4.646,4.646,0,0,1,6.9,37.461,3.3,3.3,0,0,1,9.67,34.7a3.311,3.311,0,0,1,3.815,1.859,23.916,23.916,0,0,0,5.494,7.09c7.283,6.423,19.5,6.427,26.744-.069C52.7,37.325,54.875,28.9,51.776,20.158A20.889,20.889,0,0,0,33.829,6.9c-9.235-.4-15.946,3.563-20.274,11.673a3.637,3.637,0,0,1-4.776,1.747A3.258,3.258,0,0,1,7.3,15.761,27.187,27.187,0,0,1,21.535,2.123,25.2,25.2,0,0,1,27.169.433,22.251,22.251,0,0,1,32.084.02" transform="translate(-4.687 0)"/>
      <path id="Path_7498" data-name="Path 7498" d="M51.729,33.255a16.263,16.263,0,0,1,10.2,4.626,3.282,3.282,0,0,1,.455,4.764,3.41,3.41,0,0,1-5.023.173,11,11,0,0,0-6.47-2.848,10.621,10.621,0,0,0-9.924,5.592,1.546,1.546,0,0,0,.512,2.182,1.639,1.639,0,0,0,2.325-.462,10.006,10.006,0,0,1,2.449-2.692,7.028,7.028,0,0,1,9.814,2,6.994,6.994,0,0,1-11.717,7.639c-.172-.253-.331-.514-.517-.757a1.638,1.638,0,0,0-2.317-.478c-.933.544-.933,1.369-.495,2.274a10.487,10.487,0,0,0,10.761,5.4,11.061,11.061,0,0,0,5.554-2.746,3.5,3.5,0,0,1,5.282.465,3.217,3.217,0,0,1-.592,4.375A16.821,16.821,0,0,1,52.4,67.4,17.248,17.248,0,0,1,33,49.6c.307-9.042,7.963-16.374,18.734-16.345" transform="translate(-22.554 -22.739)" fill="#019444"/>
      <path id="Path_7499" data-name="Path 7499" d="M4,74.673A3.967,3.967,0,0,1,8.15,78.781,4.111,4.111,0,0,1,4.23,82.77,4.142,4.142,0,0,1,0,78.67a3.988,3.988,0,0,1,4-4" transform="translate(0 -51.059)" fill="#019444"/>
      <path id="Path_7500" data-name="Path 7500" d="M120.088,74.68a4.03,4.03,0,0,1,4.02,4.125,4.089,4.089,0,0,1-4.1,3.936,4.032,4.032,0,0,1-4.056-4.09,3.952,3.952,0,0,1,4.135-3.971" transform="translate(-79.286 -51.064)"/>
    </g>
  </g>
</svg>
