<svg xmlns="http://www.w3.org/2000/svg" xmlns:xlink="http://www.w3.org/1999/xlink" width="90" height="90" viewBox="0 0 90 90">
  <defs>
    <clipPath id="clip-path">
      <rect id="Rectangle_120" data-name="Rectangle 120" width="60.016" height="65.607" fill="none"/>
    </clipPath>
  </defs>
  <g id="Group_6196" data-name="Group 6196" transform="translate(-309.65 -3709.86)">
    <rect id="Rectangle_47" data-name="Rectangle 47" width="89" height="89" rx="23.5" transform="translate(310.15 3710.36)" fill="#f7f9f8"/>
    <rect id="Rectangle_48" data-name="Rectangle 48" width="89" height="89" rx="23.5" transform="translate(310.15 3710.36)" fill="none" stroke="#f0f2f1" stroke-width="1"/>
    <g id="Group_6037" data-name="Group 6037" transform="translate(326 3719.882)">
      <g id="Group_6037-2" data-name="Group 6037" clip-path="url(#clip-path)">
        <path id="Path_7501" data-name="Path 7501" d="M29.958,222.57H1.86c-.186,0-.371,0-.557,0A1.21,1.21,0,0,1,0,221.236a24.04,24.04,0,0,1,1.478-7.987,21.506,21.506,0,0,1,3.881-6.71,16.621,16.621,0,0,1,11.388-6.14c1.24-.111,2.5-.045,3.747-.038a.776.776,0,0,0,.686-.337A10.4,10.4,0,0,0,22.726,197c.091-.263-.017-.382-.217-.507a13.836,13.836,0,0,1-4.851-5.158,6.564,6.564,0,0,1-.317-.629,1.178,1.178,0,0,1,.608-1.584,1.227,1.227,0,0,1,1.569.606,11.848,11.848,0,0,0,2.272,3.143,11.433,11.433,0,0,0,6.792,3.265,11.233,11.233,0,0,0,7.57-1.652,11.492,11.492,0,0,0,5.417-8.143,12.206,12.206,0,0,0,.152-2.032q-.005-5.215,0-10.43c0-.117.065-.277-.059-.343s-.221.077-.322.139a14.392,14.392,0,0,1-4.8,1.693c-2.137.417-4.309.615-6.444,1.04A18.41,18.41,0,0,0,24,178.662,16.642,16.642,0,0,0,19.87,182.3a1.23,1.23,0,0,1-1.819.272,1.273,1.273,0,0,1-.032-1.8A19.053,19.053,0,0,1,29.94,174c2.143-.383,4.312-.6,6.444-1.039a10.294,10.294,0,0,0,4.505-1.9,7.3,7.3,0,0,0,1.031-1.012,1.222,1.222,0,0,1,1.354-.439,1.185,1.185,0,0,1,.835,1.111c.009.111.006.223.006.334q0,6.644,0,13.288a14.122,14.122,0,0,1-2.625,8.357,13.655,13.655,0,0,1-3.934,3.725.485.485,0,0,0-.234.693,11.386,11.386,0,0,0,1.4,2.772,1.02,1.02,0,0,0,.924.478,37.7,37.7,0,0,1,3.857.054,15.613,15.613,0,0,1,6.874,2.39,19.5,19.5,0,0,1,6.806,7.446,23.524,23.524,0,0,1,2.769,9.663c.032.457.064.913.06,1.37a1.17,1.17,0,0,1-1.107,1.256,4.794,4.794,0,0,1-.63.024H29.958m.011-2.395H40.992c.6,0,.6,0,.6-.582q0-1.911,0-3.823a1.393,1.393,0,0,1,.4-1.08,1.138,1.138,0,0,1,1.279-.214,1.11,1.11,0,0,1,.714,1.114c0,1.349,0,2.7,0,4.046,0,.538,0,.539.53.539H56.986c.087,0,.173-.006.26,0,.225.012.319-.1.3-.315-.024-.271-.041-.543-.075-.812a19.809,19.809,0,0,0-5.844-12.24,13.434,13.434,0,0,0-9.737-4.058c-.891.009-1.785-.05-2.671.015a2.245,2.245,0,0,1-2.008-.953,11.7,11.7,0,0,1-2.071-3.744c-.094-.274-.193-.325-.475-.229a14.046,14.046,0,0,1-9.248.026c-.35-.118-.459-.033-.574.291a10.913,10.913,0,0,1-2.378,4.026,1.79,1.79,0,0,1-1.388.575c-1.175-.013-2.351-.021-3.526,0a12.945,12.945,0,0,0-7.082,2.353,16.988,16.988,0,0,0-5.032,5.376,21.227,21.227,0,0,0-2.971,9.281c-.026.3.04.414.366.413q6.366-.014,12.731,0c.384,0,.48-.132.475-.5-.018-1.361-.013-2.722,0-4.083a1.154,1.154,0,0,1,1.247-1.216,1.22,1.22,0,0,1,1.142,1.345c.007,1.311,0,2.623,0,3.934,0,.508,0,.509.519.509H29.969" transform="translate(0.001 -156.964)" fill="#319b88"/>
        <path id="Path_7502" data-name="Path 7502" d="M105.945,26.03c0-1.287-.013-2.574,0-3.86a3.449,3.449,0,0,1,2.041-3.233.532.532,0,0,0,.344-.5,19.507,19.507,0,0,1,6.586-13.411,19.754,19.754,0,0,1,24.946-1.119,19.49,19.49,0,0,1,7.81,13.019c.082.512.122,1.031.16,1.549a.445.445,0,0,0,.277.428,3.508,3.508,0,0,1,2.11,3.415c-.005,2.536,0,5.073,0,7.609a3.534,3.534,0,0,1-7.067.123c-.016-2.672-.035-5.345.008-8.017a3.336,3.336,0,0,1,1.92-3.042.562.562,0,0,0,.36-.635A17.537,17.537,0,0,0,133.941,3.4a17.48,17.48,0,0,0-13.42.716,17.473,17.473,0,0,0-9.7,13.384c0,.012,0,.025-.006.037a1.345,1.345,0,0,0,.69,1.748,3.119,3.119,0,0,1,1.509,2.891q.013,1.874,0,3.749a.637.637,0,0,0,.292.591,30.777,30.777,0,0,0,10.429,4.949c.4.094.634.076.875-.315a2.511,2.511,0,0,1,1.919-1.2,12.36,12.36,0,0,1,3.108,0,2.979,2.979,0,0,1-.221,5.9,14.9,14.9,0,0,1-2.778-.006,2.807,2.807,0,0,1-2.236-1.526.719.719,0,0,0-.533-.4,30.23,30.23,0,0,1-9.2-3.657c-.46-.266-.905-.558-1.35-.85-.243-.16-.319-.1-.3.177a3.793,3.793,0,0,1-.562,2.267,3.532,3.532,0,0,1-6.432-1.171,4.265,4.265,0,0,1-.08-.848c0-1.274,0-2.549,0-3.823m41.878.009q0-1.873,0-3.745a1.368,1.368,0,0,0-.081-.582,1.171,1.171,0,0,0-1.3-.693,1.138,1.138,0,0,0-.893,1.169q-.009,3.875,0,7.75a1.2,1.2,0,0,0,.066.4,1.131,1.131,0,0,0,1.3.74,1.105,1.105,0,0,0,.91-1.106c.01-1.31,0-2.62,0-3.93m-39.481,0c0,1.273,0,2.546,0,3.819a1.142,1.142,0,1,0,2.278.012q.006-3.8,0-7.6a1.147,1.147,0,1,0-2.279.025q0,1.872,0,3.744M128.1,32.294v0c-.345,0-.691-.013-1.035,0a.551.551,0,0,0-.6.6.573.573,0,0,0,.609.6q1.017.023,2.034,0a.559.559,0,0,0,.6-.606.568.568,0,0,0-.606-.6c-.332-.013-.666,0-1,0" transform="translate(-98.075 -0.001)" fill="#77d1bc"/>
      </g>
    </g>
  </g>
</svg>
