<svg xmlns="http://www.w3.org/2000/svg" xmlns:xlink="http://www.w3.org/1999/xlink" width="158" height="158" viewBox="0 0 158 158">
  <defs>
    <filter id="Rectangle_3316" x="0" y="0" width="158" height="158" filterUnits="userSpaceOnUse">
      <feOffset dy="10" input="SourceAlpha"/>
      <feGaussianBlur stdDeviation="5" result="blur"/>
      <feFlood flood-opacity="0.09"/>
      <feComposite operator="in" in2="blur"/>
      <feComposite in="SourceGraphic"/>
    </filter>
  </defs>
  <g id="Group_6185" data-name="Group 6185" transform="translate(-1546 -2213.499)">
    <g transform="matrix(1, 0, 0, 1, 1546, 2213.5)" filter="url(#Rectangle_3316)">
      <rect id="Rectangle_3316-2" data-name="Rectangle 3316" width="128" height="128" rx="11" transform="translate(15 5)" fill="#fff"/>
    </g>
    <g id="Group_6089" data-name="Group 6089" transform="translate(1580.646 2238.113)">
      <path id="Path_7592" data-name="Path 7592" d="M1033.331,115.466a2.465,2.465,0,0,1-1.658-1.009q-6.771-7.25-13.54-14.5-7.931-8.513-15.85-17.037-4.749-5.1-9.508-10.2c-.977-1.05-1.02-1.631-.24-2.861,1.13-1.781,2.223-3.589,3.43-5.316a1.289,1.289,0,0,0-.192-1.935,6.965,6.965,0,0,0-4.382-2.25c-.355-.036-.709-.1-1.06-.158a1.575,1.575,0,0,1,.039-3.131,17.9,17.9,0,0,0,2.109-.354,7.09,7.09,0,0,0,5.142-6.444c.122-1.241.655-1.9,1.573-1.943s1.549.6,1.681,1.847a8.229,8.229,0,0,0,.918,3.273c.4.7.7.941,1.212.073.686-1.171,1.465-2.288,2.172-3.447a2.272,2.272,0,0,1,2.126-1.168q26.009.019,52.018,0a2.309,2.309,0,0,1,2.124,1.173q6.311,9.9,12.646,19.789c.81,1.269.724,1.814-.4,3.021-4.555,4.893-9.1,9.8-13.678,14.664-.63.669-.561,1.075.052,1.655a9.769,9.769,0,0,0,6.416,2.852,4.293,4.293,0,0,1,.848.107,1.6,1.6,0,0,1-.165,3.169c-.81.124-1.643.137-2.439.317a9.891,9.891,0,0,0-7.551,9.066c0,.035,0,.071,0,.107-.069,1.309-.712,2.094-1.694,2.069-.947-.025-1.567-.778-1.62-2.033a9.67,9.67,0,0,0-1.623-5.034c-1.477-2.227-1.625-2.2-3.4-.289-4.658,5.04-9.354,10.046-14.033,15.067a2.175,2.175,0,0,1-1.475.855m-24.046-57.9a9.7,9.7,0,0,0-1.244-2.118c-1.22-1.91-1.229-1.9-2.425-.027-.613.962-.552,1.1.583,1.382,1.027.256,2.157.1,3.084.764.53,1.809.143,2.424-1.7,2.706-.212.032-.423.074-.635.1a6.956,6.956,0,0,0-5.855,5.246c-.14.587-.149,1.2-.267,1.8-.311,1.562-1.485,1.981-2.754,1-.177-.137-.325-.5-.6-.194s-.654.654-.59,1.094c.05.342.475.229.742.229q9.221.01,18.443.01c.757,0,.888-.226.469-.866-1.078-1.644-2.105-3.32-3.188-4.96-1.357-2.054-2.543-4.221-4.062-6.169m23.986,50.674c.209-.5.305-.69.367-.889q5.195-16.734,10.4-33.463c.312-1-.058-1.048-.86-1.046-6.541.019-13.083.01-19.624.011-1.288,0-1.285,0-.907,1.223q3.7,11.923,7.4,23.847c1.037,3.338,2.082,6.674,3.218,10.317M997.377,72.906l32.031,34.381c.179-.28.008-.471-.049-.655q-5.068-16.381-10.139-32.76a1.275,1.275,0,0,0-1.459-1.036c-6.4.026-12.8.014-19.2.016-.313,0-.626.027-1.189.053m71.705.171c-.233-.3-.466-.221-.665-.221-6.575,0-13.15.01-19.726-.021-.84,0-1.094.415-1.3,1.095q-4.366,14.126-8.759,28.243c-.518,1.669-1.022,3.343-1.533,5.015,2.928-2.918,5.707-5.89,8.477-8.871a10.866,10.866,0,0,0,1.835-2.194,5.9,5.9,0,0,0-3.048-.744c-1.264-.087-1.991-.674-1.989-1.646,0-.954.739-1.57,1.995-1.669,5.474-.436,9.091-4.055,9.492-9.5.094-1.279.682-1.954,1.687-1.937s1.567.685,1.622,1.983a6.094,6.094,0,0,0,.575,2.642l11.34-12.179m-9.343-3.522c3.034,0,6.068,0,9.1-.006.3,0,.7.141.884-.192.16-.287-.143-.524-.29-.753q-4.554-7.127-9.113-14.251c-.391-.614-.588-.757-1.054-.019-2.991,4.738-6.029,9.446-9.045,14.167-.166.26-.513.528-.351.841.194.375.644.2.98.205,2.962.013,5.925.007,8.888.007m-26.462,0c3.07,0,6.139-.02,9.208.013.921.01.941-.249.494-.943q-4.551-7.064-9.056-14.159c-.509-.8-.794-.676-1.247.036-2.966,4.669-5.96,9.319-8.933,13.984-.18.282-.59.592-.365.928.2.3.666.135,1.012.136,2.963.009,5.925.005,8.887,0M1020.113,52.2c-2.93,0-5.859,0-8.789.005-.381,0-.9-.173-1.108.175-.256.425.225.777.44,1.116,2.953,4.641,5.933,9.266,8.881,13.91.405.638.6.718,1.048.015,3-4.739,6.037-9.453,9.055-14.181.165-.258.525-.521.353-.839-.2-.37-.647-.192-.984-.194-2.965-.013-5.931-.008-8.9-.008m26.5,0c-3.073,0-6.145.007-9.218-.005-.706,0-1.054.084-.544.874q4.648,7.2,9.245,14.441c.386.607.573.542.927-.016,3.027-4.764,6.08-9.511,9.113-14.27.589-.924.527-1.017-.627-1.02-2.965-.009-5.931,0-8.9,0m13.879,41.464a2.707,2.707,0,0,0-.3-.249,13.743,13.743,0,0,1-4.345-4.347c-.254-.406-.433-.379-.675.008a13.06,13.06,0,0,1-4.263,4.274c-.547.338-.392.525.05.8a12.654,12.654,0,0,1,4.122,4.117c.335.541.526.543.863,0a12.983,12.983,0,0,1,4.113-4.13c.168-.107.413-.156.433-.472m-58.411-35.083a1.771,1.771,0,0,0-.285-.357,10.82,10.82,0,0,1-2.239-2.291c-.31-.442-.514-.173-.721.109a10.213,10.213,0,0,1-2.1,2.127c-.4.306-.507.556-.042.9a10.534,10.534,0,0,1,2.179,2.2c.115.157.313.471.489.24a23.87,23.87,0,0,1,2.676-2.755c.021-.02.018-.066.046-.179" transform="translate(-988.947 -26.695)" fill="#019444"/>
      <path id="Path_7593" data-name="Path 7593" d="M1157,31.229c-.987,0-1.55-.6-1.686-1.678-.364-2.887-1.9-4.754-4.382-5.291-.416-.09-.856-.072-1.274-.159a1.623,1.623,0,0,1,.067-3.231c3.756-.6,5.035-1.871,5.6-5.6a1.521,1.521,0,0,1,1.541-1.482,1.483,1.483,0,0,1,1.589,1.3c.12.558.145,1.137.278,1.691a5.467,5.467,0,0,0,4.75,4.055,5.321,5.321,0,0,1,.952.122,1.51,1.51,0,0,1,1.191,1.582,1.488,1.488,0,0,1-1.162,1.494,5.247,5.247,0,0,1-.95.136,5.386,5.386,0,0,0-4.867,4.545c-.068.423-.111.853-.211,1.269A1.523,1.523,0,0,1,1157,31.229m1.807-8.8c-.62-.579-1.252-1.177-1.9-1.755-.028-.025-.229.123-.333.209-1.729,1.424-1.728,1.425-.192,3.016a.589.589,0,0,1,.071.079c.348.525.645.4.97-.043.209-.282.49-.51.727-.773.208-.23.553-.332.661-.733" transform="translate(-1076.914 -7.614)" fill="#019444"/>
      <path id="Path_7594" data-name="Path 7594" d="M1109.883,23.293a1.574,1.574,0,0,1-1.42-.927,1.557,1.557,0,0,1,.324-1.875c1.066-1.1,2.162-2.181,3.246-3.268,1.387-1.39,2.767-2.789,4.167-4.166.94-.924,1.932-1.008,2.623-.264.65.7.54,1.672-.332,2.548q-3.587,3.609-7.193,7.2a2.233,2.233,0,0,1-1.416.751" transform="translate(-1054.859 -6.791)" fill="#019444"/>
      <path id="Path_7595" data-name="Path 7595" d="M1044.785,12.291a2.089,2.089,0,0,1,1.532.721c2.425,2.422,4.856,4.838,7.267,7.274a1.66,1.66,0,0,1,.177,2.547c-.71.672-1.588.6-2.459-.26-2.459-2.438-4.9-4.9-7.35-7.342a1.7,1.7,0,0,1-.482-2.035,1.457,1.457,0,0,1,1.315-.906" transform="translate(-1018.973 -6.789)" fill="#019444"/>
      <path id="Path_7596" data-name="Path 7596" d="M1087.67,7.168c0,1.714.012,3.429,0,5.143-.012,1.194-.611,1.883-1.581,1.877s-1.557-.689-1.561-1.9q-.018-5.2,0-10.392c0-1.159.65-1.905,1.581-1.9s1.553.75,1.563,1.917c.014,1.75,0,3.5,0,5.25" transform="translate(-1041.732 -0.001)" fill="#019444"/>
    </g>
  </g>
</svg>
