<svg xmlns="http://www.w3.org/2000/svg" xmlns:xlink="http://www.w3.org/1999/xlink" width="158" height="158" viewBox="0 0 158 158">
  <defs>
    <filter id="Rectangle_3315" x="0" y="0" width="158" height="158" filterUnits="userSpaceOnUse">
      <feOffset dy="10" input="SourceAlpha"/>
      <feGaussianBlur stdDeviation="5" result="blur"/>
      <feFlood flood-opacity="0.09"/>
      <feComposite operator="in" in2="blur"/>
      <feComposite in="SourceGraphic"/>
    </filter>
  </defs>
  <g id="Group_6189" data-name="Group 6189" transform="translate(-1280 -2213)">
    <g transform="matrix(1, 0, 0, 1, 1280, 2213)" filter="url(#Rectangle_3315)">
      <rect id="Rectangle_3315-2" data-name="Rectangle 3315" width="128" height="128" rx="11" transform="translate(15 5)" fill="#fff"/>
    </g>
    <g id="Group_6088" data-name="Group 6088" transform="translate(1324 2239)">
      <path id="Path_7588" data-name="Path 7588" d="M848.552,92.139c-22.075,0-37.846-14.257-39.832-33.163a36.971,36.971,0,0,1,29.85-39.914c1.538-.284,2.218-.845,2.07-2.428a16.417,16.417,0,0,1,.037-2.906,4.842,4.842,0,0,1,4.664-4.595c2.425.017,4.069,1.814,4.236,4.653.044.74.05,1.482.058,2.224.027,2.508.026,2.5,2.556,2.976A35.777,35.777,0,0,1,875.8,34.608c3.96,5.8.374,13.136-6.592,13.851a8.985,8.985,0,0,1-4.172-.723c-4.459-1.719-8.177.619-8.624,5.367a20.41,20.41,0,0,0,.04,4.431,6.126,6.126,0,0,0,8.514,5.164c4.333-1.612,8.275-.642,10.75,2.645,2.532,3.364,2.5,7.614-.185,11.275-7.457,10.175-17.556,15.253-26.976,15.52m-8.28-64.454h.04c0-1.255,0-2.51,0-3.764.009-2.024-.225-2.222-2.156-1.8-23.073,4.994-34.175,31.974-21.07,51.608,6.984,10.464,17.011,15.612,29.646,15.2,11.18-.361,19.965-5.349,26.477-14.4a6.345,6.345,0,0,0,1.4-4.632c-.541-4.032-4.23-5.96-8.427-4.421a9.114,9.114,0,0,1-12.559-8.72c-.009-1.312-.023-2.624.008-3.935a9.072,9.072,0,0,1,6.629-8.407c2.393-.676,4.594-.115,6.856.61a5.723,5.723,0,0,0,7.439-6.914c-.428-1.861-1.691-3.213-2.84-4.615a33.52,33.52,0,0,0-19.9-11.793c-.854-.173-1.687-.393-1.642,1.093.337,11.112.573,22.226.933,33.337.082,2.543-.253,5.186.689,7.612a17.04,17.04,0,0,1,.763,9.733c-.979,4.9-3.587,8.949-6.838,12.634-.333.377-.624,1.009-1.155.909-.74-.139-.506-.921-.577-1.441-.5-3.67-1.454-7.049-4.176-9.873-1.882-1.951-2.141-4.669-2.068-7.38.06-2.23,1.426-4.119,1.5-6.283.381-11.452.693-22.906,1.029-34.36M842.816,44.2h-.04c0,.74.015,1.481,0,2.221s-.082,1.478-.113,2.217c-.136,3.2-.131,3.124,3.032,3.251,1.632.066,2.193-.416,2.125-2.1-.289-7.222-.474-14.449-.683-21.674-.133-4.609-.238-9.219-.356-13.828a6.3,6.3,0,0,0-.039-.682,1.385,1.385,0,0,0-1.506-1.315,1.268,1.268,0,0,0-1.409,1.191,20.023,20.023,0,0,0-.245,2.2q-.4,14.255-.761,28.511m3.249,36.3a6.142,6.142,0,0,0,1.564-2.274c1.877-3.621,2.918-7.391,1.854-11.5a2.128,2.128,0,0,0-2.088-1.886c-1.59-.041-3.182-.033-4.773-.05a1.208,1.208,0,0,0-1.262.932c-.911,2.832-1.083,5.7.771,8.156,1.536,2.033,3.29,3.88,3.935,6.62M842.48,58.22c0,.625.05,1.255-.01,1.874-.132,1.356.475,1.8,1.788,1.756,4.375-.147,3.907.758,3.83-4.06-.007-.452-.167-.9-.152-1.352.046-1.4-.718-1.68-1.944-1.654-4.009.083-3.425-.391-3.512,3.436" transform="translate(-808.523 -9.133)" fill="#019444"/>
      <path id="Path_7589" data-name="Path 7589" d="M846.167,72.953a8.355,8.355,0,0,1-7.917-7.918,6.229,6.229,0,0,1,6.157-6.261,8.387,8.387,0,0,1,7.984,8.047,6.074,6.074,0,0,1-6.224,6.132m-1.592-10.985c-2.095-.013-3.182.977-3.194,2.909a4.868,4.868,0,0,0,4.708,4.87,2.745,2.745,0,0,0,3.092-3.028,4.771,4.771,0,0,0-4.607-4.752" transform="translate(-824.942 -36.551)" fill="#019444"/>
      <path id="Path_7590" data-name="Path 7590" d="M844.643,147.786c-3.612-.042-6.05-2.626-6.037-6.4.013-3.717,3.827-7.442,7.592-7.414a6.206,6.206,0,0,1,6.367,6.2,8.084,8.084,0,0,1-7.922,7.612m1.562-10.688a4.907,4.907,0,0,0-4.55,4.675,2.833,2.833,0,0,0,3.109,3.043,4.794,4.794,0,0,0,4.555-4.639,2.922,2.922,0,0,0-3.114-3.079" transform="translate(-825.139 -78.086)" fill="#019444"/>
      <path id="Path_7591" data-name="Path 7591" d="M829.545,110.576c-4.221-.116-7.366-2.728-7.484-6.215-.155-4.591,4.535-7.816,9.407-6.468,3.348.926,5.623,3.917,5.22,6.864a6.972,6.972,0,0,1-7.144,5.819m-.137-2.985a11.685,11.685,0,0,0,1.224-.189c1.934-.461,3.095-1.757,3.059-3.378-.035-1.56-1.145-2.764-3.024-3.229a6.405,6.405,0,0,0-1.515-.2c-2.417,0-4.226,1.553-4.191,3.563.034,1.933,1.811,3.4,4.447,3.434" transform="translate(-815.999 -57.987)" fill="#019444"/>
    </g>
  </g>
</svg>
