<svg xmlns="http://www.w3.org/2000/svg" xmlns:xlink="http://www.w3.org/1999/xlink" width="158" height="158" viewBox="0 0 158 158">
  <defs>
    <filter id="Rectangle_3311" x="0" y="0" width="158" height="158" filterUnits="userSpaceOnUse">
      <feOffset dy="10" input="SourceAlpha"/>
      <feGaussianBlur stdDeviation="5" result="blur"/>
      <feFlood flood-opacity="0.09"/>
      <feComposite operator="in" in2="blur"/>
      <feComposite in="SourceGraphic"/>
    </filter>
  </defs>
  <g id="Group_6198" data-name="Group 6198" transform="translate(-205 -2213.499)">
    <g transform="matrix(1, 0, 0, 1, 205, 2213.5)" filter="url(#Rectangle_3311)">
      <rect id="Rectangle_3311-2" data-name="Rectangle 3311" width="128" height="128" rx="11" transform="translate(15 5)" fill="#fff"/>
    </g>
    <g id="Group_6086" data-name="Group 6086" transform="translate(238.155 2245.031)">
      <path id="Path_7553" data-name="Path 7553" d="M45.434,104.225H1.957c-.248,0-.5.009-.742-.008A1.2,1.2,0,0,1,0,103.027c.028-.622.5-1.018,1.264-1.021q4.219-.01,8.439,0c1.646,0,1.46.06,1.461-1.455q0-15.122,0-30.245c0-2.432,1.307-3.75,3.76-3.755,4.771-.01,9.542,0,14.312,0,.879,0,.866,0,.865-.877q-.005-10.9,0-21.806c0-2.517,1.121-4.1,3.231-4.735a5.061,5.061,0,0,1,1.47-.159q10.6,0,21.2,0c3.11,0,4.925,1.812,4.849,4.94-.129,5.288-.024,10.575-.06,15.863-.014,2,.015,4.006-.01,6.008-.008.627.218.8.836.792q7.189-.043,14.379-.017a4.175,4.175,0,0,1,1.974.364,3.316,3.316,0,0,1,1.828,3.21q-.011,9.35,0,18.7,0,6.144,0,12.287c0,.883,0,.885.908.885h8.844a1.5,1.5,0,0,1,.914.167,1.053,1.053,0,0,1,.494.976,1.028,1.028,0,0,1-.65.946,2.791,2.791,0,0,1-1.131.13H45.434M58.576,72.273q0-14.342,0-28.683A2.129,2.129,0,0,0,56.281,41.2q-10.8-.017-21.6,0a2.1,2.1,0,0,0-2.291,2.326q0,28.784,0,57.568c0,.8.087.9.884.908,1.6.012,3.194.009,4.791,0,.883,0,.942-.064.943-.975,0-2.767,0-5.534.006-8.3a5.962,5.962,0,0,1,.108-1.205,2.184,2.184,0,0,1,2.161-1.787c2.789-.018,5.579-.005,8.369-.006a2.21,2.21,0,0,1,1.669.759,2.852,2.852,0,0,1,.632,2.077c0,2.879.015,5.759-.009,8.638,0,.617.194.827.816.813,1.619-.035,3.239-.011,4.859-.012.954,0,.955,0,.955-.981q0-14.375,0-28.75M60.8,85.37q0,7.693,0,15.385c0,1.239.02,1.247,1.22,1.248q7.288,0,14.576,0c.976,0,.988-.016.988-.974q0-11.741,0-23.483c0-2.452.007-4.9,0-7.355,0-.958-.375-1.347-1.284-1.348-4.9-.008-9.807,0-14.71-.013-.559,0-.783.227-.782.751,0,.269-.009.539-.009.809q0,7.491,0,14.98m-30.69,0h.008c0-5.331-.009-10.661.014-15.992,0-.577-.3-.544-.678-.544q-7.355,0-14.71,0c-.975,0-1.349.37-1.349,1.353q-.007,15.553-.01,31.107c0,.523.173.713.7.711q7.692-.019,15.385,0c.487,0,.654-.122.652-.647-.021-5.331-.013-10.662-.013-15.992M49.662,97h0c0-1.417-.023-2.836.011-4.252.014-.616-.2-.823-.816-.815q-3.375.044-6.75,0c-.621-.008-.821.2-.815.814.025,2.745.01,5.49.011,8.235,0,.971,0,1,.941,1.01,2.25.02,4.5,0,6.75.017.5,0,.675-.212.671-.69-.013-1.44,0-2.88,0-4.32" transform="translate(0 -38.969)" fill="#019444"/>
      <path id="Path_7554" data-name="Path 7554" d="M53.3,189.148H90.563a6.821,6.821,0,0,1,.943.029,1.02,1.02,0,0,1,.935,1.065,1.007,1.007,0,0,1-.9,1.089,3.951,3.951,0,0,1-.74.035q-37.5,0-75,0c-1.14,0-1.647-.351-1.651-1.132,0-.75.515-1.087,1.683-1.087H53.3" transform="translate(-7.814 -121.917)" fill="#019444"/>
      <path id="Path_7555" data-name="Path 7555" d="M90.463,94.532q3.642,0,7.284,0a4.425,4.425,0,0,1,.8.05,1,1,0,0,1,.936,1.052,1.026,1.026,0,0,1-.953,1.112,6.324,6.324,0,0,1-.873.061q-7.115.006-14.23,0a9.11,9.11,0,0,1-1.209-.087.976.976,0,0,1-.911-1,.953.953,0,0,1,.8-1.084,4.433,4.433,0,0,1,1-.1c2.45-.008,4.9,0,7.351,0" transform="translate(-44.91 -69.658)" fill="#019444"/>
      <path id="Path_7556" data-name="Path 7556" d="M90.447,140.244H98.2c.814,0,1.269.369,1.289,1.046a1.149,1.149,0,0,1-1.163,1.158,5.473,5.473,0,0,1-.606.015q-7.317,0-14.633,0a4.354,4.354,0,0,1-.937-.074,1.007,1.007,0,0,1-.837-1.19.993.993,0,0,1,1.04-.946c.651-.024,1.3,0,1.955,0q3.068,0,6.136,0Z" transform="translate(-44.906 -94.904)" fill="#019444"/>
      <path id="Path_7557" data-name="Path 7557" d="M90.373,83.222q3.909,0,7.819,0c.8,0,1.242.333,1.285.976.048.723-.376,1.193-1.2,1.228-.92.039-1.842.017-2.763.018q-6.167,0-12.335,0a5.921,5.921,0,0,1-.874-.038,1.057,1.057,0,0,1-1-1.144,1,1,0,0,1,1.108-1.012c.831-.022,1.662-.008,2.494-.008h5.46v-.017" transform="translate(-44.91 -63.411)" fill="#019444"/>
      <path id="Path_7558" data-name="Path 7558" d="M90.353,108.171q-3.876,0-7.751,0a1.18,1.18,0,0,1-1.169-.507,1.092,1.092,0,0,1,.705-1.644,3.279,3.279,0,0,1,.736-.054q7.482,0,14.963,0c.112,0,.225,0,.337,0,.807.031,1.275.425,1.286,1.078.011.7-.45,1.12-1.288,1.122-2.606.007-5.213,0-7.819,0" transform="translate(-44.888 -75.973)" fill="#019444"/>
      <path id="Path_7559" data-name="Path 7559" d="M90.462,128.835q3.876,0,7.752,0a1.094,1.094,0,0,1,1.232.815,1.056,1.056,0,0,1-.809,1.336,3.03,3.03,0,0,1-.669.052q-7.583,0-15.166,0c-.135,0-.27,0-.4-.008a1.087,1.087,0,0,1-1.091-1.13,1.012,1.012,0,0,1,1.134-1.057c2.449-.015,4.9-.008,7.347-.008h.674" transform="translate(-44.908 -88.603)" fill="#019444"/>
      <path id="Path_7560" data-name="Path 7560" d="M90.372,119.6H82.878a4.72,4.72,0,0,1-.607-.015,1.062,1.062,0,0,1-.961-1.11,1.032,1.032,0,0,1,.939-1.06,3.594,3.594,0,0,1,.606-.02H97.978c.112,0,.225,0,.338,0a1.1,1.1,0,1,1,.022,2.2c-.337.016-.675,0-1.013,0H90.372" transform="translate(-44.91 -82.286)" fill="#019444"/>
      <path id="Path_7561" data-name="Path 7561" d="M90.324,51.153q-3.712,0-7.425,0a5.2,5.2,0,0,1-.674-.024.982.982,0,0,1-.908-.935,1.017,1.017,0,0,1,.714-1.16,2.527,2.527,0,0,1,.934-.095q7.424,0,14.849,0a4.621,4.621,0,0,1,.673.026,1.092,1.092,0,0,1-.064,2.178c-.223.019-.45.009-.675.009H90.324" transform="translate(-44.908 -44.475)" fill="#019444"/>
      <path id="Path_7562" data-name="Path 7562" d="M90.4,71.8q3.746,0,7.493,0a3.5,3.5,0,0,1,.673.029,1.029,1.029,0,0,1,.918,1.077,1,1,0,0,1-.855,1.057,3.514,3.514,0,0,1-.8.05q-7.425,0-14.851,0a3.483,3.483,0,0,1-.8-.052,1,1,0,0,1-.847-1.128.983.983,0,0,1,.979-1.009c.582-.04,1.169-.022,1.754-.022q3.172,0,6.345,0" transform="translate(-44.912 -57.104)" fill="#019444"/>
      <path id="Path_7563" data-name="Path 7563" d="M90.385,62.59H82.9a4.889,4.889,0,0,1-.607-.015,1.1,1.1,0,0,1,.009-2.18,4.887,4.887,0,0,1,.607-.016q7.455,0,14.91,0a3.381,3.381,0,0,1,.8.051,1.077,1.077,0,0,1-.009,2.11,3.235,3.235,0,0,1-.738.047q-3.744,0-7.489,0" transform="translate(-44.909 -50.793)" fill="#019444"/>
      <path id="Path_7564" data-name="Path 7564" d="M158.692,153.8c-.471,0-.944.032-1.412-.008a1.134,1.134,0,0,1-1.121-1.121,1.069,1.069,0,0,1,1.11-1.112c.961-.044,1.928-.041,2.889.007a1.127,1.127,0,0,1,1.143,1.1,1.155,1.155,0,0,1-1.132,1.115c-.488.045-.985.009-1.478.009v.01" transform="translate(-86.252 -101.141)" fill="#019444"/>
      <path id="Path_7565" data-name="Path 7565" d="M144.172,151.565c.47,0,.943-.036,1.409.009a1.074,1.074,0,0,1,1.087,1.13,1.06,1.06,0,0,1-1.119,1.092c-.938.043-1.882.051-2.819.005a1.105,1.105,0,0,1-1.161-1.142c0-.632.431-1.047,1.194-1.1.468-.032.94-.006,1.41-.006v.01" transform="translate(-78.192 -101.148)" fill="#019444"/>
      <path id="Path_7566" data-name="Path 7566" d="M144.094,119.592c-.493,0-.988.021-1.479-.005a1.063,1.063,0,0,1-1.082-1.062,1.018,1.018,0,0,1,1.022-1.1c1.051-.046,2.106-.046,3.157,0a.964.964,0,0,1,.935,1.04,1.016,1.016,0,0,1-.941,1.109c-.533.047-1.074.01-1.611.01v.013" transform="translate(-78.171 -82.281)" fill="#019444"/>
      <path id="Path_7567" data-name="Path 7567" d="M158.771,117.4c.493,0,.988-.025,1.478.007a1.091,1.091,0,0,1,1.056,1.091,1.049,1.049,0,0,1-1.061,1.082c-1.029.034-2.062.033-3.091,0a1.095,1.095,0,0,1,.138-2.179c.493,0,.986,0,1.479,0" transform="translate(-86.26 -82.286)" fill="#019444"/>
      <path id="Path_7568" data-name="Path 7568" d="M158.731,165.17c-.493,0-.987.02-1.478,0a1.086,1.086,0,0,1-1.087-1.059,1.045,1.045,0,0,1,1.018-1.117c1.006-.042,2.017-.044,3.023,0a1.087,1.087,0,0,1,1.091,1.194,1.136,1.136,0,0,1-1.223,1c-.448,0-.9,0-1.344,0Z" transform="translate(-86.255 -107.451)" fill="#019444"/>
      <path id="Path_7569" data-name="Path 7569" d="M158.715,131.023c-.492,0-.987.026-1.477-.006a1.085,1.085,0,0,1-1.078-1.137,1.073,1.073,0,0,1,1.1-1.046c.962-.022,1.926-.024,2.888,0a1.078,1.078,0,0,1,1.156,1.056,1.111,1.111,0,0,1-1.108,1.121c-.49.036-.984.007-1.477.007v0" transform="translate(-86.251 -88.595)" fill="#019444"/>
      <path id="Path_7570" data-name="Path 7570" d="M158.731,142.455c-.47,0-.942.03-1.41-.007a1.14,1.14,0,0,1-1.159-1.149c.015-.642.455-1.027,1.225-1.039.918-.015,1.836-.016,2.754-.011a1.088,1.088,0,0,1,.2,2.167,14.05,14.05,0,0,1-1.608.013v.026" transform="translate(-86.253 -94.907)" fill="#019444"/>
      <path id="Path_7571" data-name="Path 7571" d="M144.11,128.836c.5,0,.991-.021,1.484,0a.992.992,0,0,1,1.05,1,1.016,1.016,0,0,1-.907,1.147,17.79,17.79,0,0,1-3.3-.006,1.044,1.044,0,0,1-.9-1.163,1.021,1.021,0,0,1,1.023-.978c.516-.026,1.035-.005,1.552-.005v0" transform="translate(-78.169 -88.601)" fill="#019444"/>
      <path id="Path_7572" data-name="Path 7572" d="M144.036,140.262c.539,0,1.079-.028,1.616.008a.971.971,0,0,1,.989.99.983.983,0,0,1-.9,1.14,12.893,12.893,0,0,1-3.291,0,1.039,1.039,0,0,1-.92-1.143,1.059,1.059,0,0,1,1.091-.983c.47-.025.943,0,1.415,0v0" transform="translate(-78.169 -94.911)" fill="#019444"/>
      <path id="Path_7573" data-name="Path 7573" d="M144.045,165.178c-.495,0-.992.026-1.484-.006a1.084,1.084,0,0,1-1.062-1.027,1.068,1.068,0,0,1,.962-1.119,30.812,30.812,0,0,1,3.234-.006,1.017,1.017,0,0,1,.932,1.129.992.992,0,0,1-1.031,1.022c-.515.031-1.034.007-1.552.007" transform="translate(-78.153 -107.464)" fill="#019444"/>
      <path id="Path_7574" data-name="Path 7574" d="M38.113,153.845c-.516-.023-1.035-.015-1.546-.077a1.05,1.05,0,0,1-.993-1.088,1.107,1.107,0,0,1,1.061-1.108c1.009-.043,2.022-.037,3.032,0a1.013,1.013,0,0,1,1.04,1.031,1.062,1.062,0,0,1-.978,1.165,1.354,1.354,0,0,1-.266.038c-.449,0-.9,0-1.348,0,0,.011,0,.022,0,.034" transform="translate(-19.648 -101.147)" fill="#019444"/>
      <path id="Path_7575" data-name="Path 7575" d="M52.833,151.53c.494,0,.991-.03,1.482.008a1.1,1.1,0,0,1,1.052,1.03,1.037,1.037,0,0,1-.937,1.135,11.846,11.846,0,0,1-3.357-.008.948.948,0,0,1-.831-1.06.961.961,0,0,1,.845-1.053,16.982,16.982,0,0,1,1.745-.1v.053" transform="translate(-27.75 -101.111)" fill="#019444"/>
      <path id="Path_7576" data-name="Path 7576" d="M38.137,119.589c-.493,0-.988.023-1.479,0a1.083,1.083,0,0,1-1.105-1.112,1.1,1.1,0,0,1,1.09-1.065q1.478-.047,2.958,0a1.089,1.089,0,0,1,.015,2.179c-.491.031-.986.006-1.479.007" transform="translate(-19.636 -82.278)" fill="#019444"/>
      <path id="Path_7577" data-name="Path 7577" d="M38.1,131.026c-.448,0-.9.021-1.343,0a1.151,1.151,0,0,1-1.2-1.107,1.107,1.107,0,0,1,1.208-1.082q1.41-.028,2.822,0a1.06,1.06,0,0,1,1.116,1.019,1.079,1.079,0,0,1-1.054,1.157c-.512.038-1.03.008-1.544.008v.007" transform="translate(-19.636 -88.596)" fill="#019444"/>
      <path id="Path_7578" data-name="Path 7578" d="M52.729,165.185c-.448,0-.9.011-1.344,0a1.042,1.042,0,0,1-1.141-1.057,1.021,1.021,0,0,1,1-1.129c1.027-.049,2.061-.047,3.088,0a1.08,1.08,0,0,1,1.031,1.122,1.04,1.04,0,0,1-1.088,1.044c-.513.028-1.03.006-1.545.006v.015" transform="translate(-27.751 -107.453)" fill="#019444"/>
      <path id="Path_7579" data-name="Path 7579" d="M38.119,165.2c-.472,0-.945.014-1.417,0a1.111,1.111,0,0,1-1.139-1.022,1.072,1.072,0,0,1,1-1.151,29.667,29.667,0,0,1,3.168.007,1,1,0,0,1,.965,1.094,1.1,1.1,0,0,1-1.095,1.06c-.045,0-.09,0-.135,0h-1.35v.013" transform="translate(-19.641 -107.466)" fill="#019444"/>
      <path id="Path_7580" data-name="Path 7580" d="M38.229,140.241c.472,0,.945-.013,1.416,0a1.026,1.026,0,0,1,1.047.954.933.933,0,0,1-.778,1.16,10.694,10.694,0,0,1-3.551,0,.955.955,0,0,1-.77-1.116,1,1,0,0,1,1.018-.975c.539-.023,1.079,0,1.618,0v-.017" transform="translate(-19.655 -94.902)" fill="#019444"/>
      <path id="Path_7581" data-name="Path 7581" d="M52.735,131.027c-.449,0-.9.02-1.347,0a1.085,1.085,0,0,1-1.15-1.136,1.049,1.049,0,0,1,1.148-1.053q1.38-.028,2.761,0a1.086,1.086,0,0,1,1.2,1.016,1.118,1.118,0,0,1-1.194,1.174c-.47.023-.942,0-1.414,0" transform="translate(-27.747 -88.596)" fill="#019444"/>
      <path id="Path_7582" data-name="Path 7582" d="M52.786,119.586c-.493,0-.988.027-1.48-.007a1.055,1.055,0,0,1-1.063-1.077,1,1,0,0,1,1.035-1.09c1.007-.043,2.019-.039,3.026-.006a1.068,1.068,0,0,1,1.039,1.105,1.093,1.093,0,0,1-1.078,1.072c-.492.028-.986.005-1.48.005v0" transform="translate(-27.751 -82.279)" fill="#019444"/>
      <path id="Path_7583" data-name="Path 7583" d="M52.793,140.27c.493,0,.988-.02,1.48,0a1.028,1.028,0,0,1,1.069.992,1.007,1.007,0,0,1-.91,1.138,13.127,13.127,0,0,1-3.286,0,1.076,1.076,0,0,1,.166-2.138c.045,0,.09,0,.134,0h1.346v0" transform="translate(-27.752 -94.916)" fill="#019444"/>
    </g>
  </g>
</svg>
