<svg xmlns="http://www.w3.org/2000/svg" xmlns:xlink="http://www.w3.org/1999/xlink" width="158" height="158" viewBox="0 0 158 158">
  <defs>
    <filter id="Rectangle_3314" x="0" y="0" width="158" height="158" filterUnits="userSpaceOnUse">
      <feOffset dy="10" input="SourceAlpha"/>
      <feGaussianBlur stdDeviation="5" result="blur"/>
      <feFlood flood-opacity="0.09"/>
      <feComposite operator="in" in2="blur"/>
      <feComposite in="SourceGraphic"/>
    </filter>
  </defs>
  <g id="Group_6188" data-name="Group 6188" transform="translate(-1006 -2213)">
    <g transform="matrix(1, 0, 0, 1, 1006, 2213)" filter="url(#Rectangle_3314)">
      <rect id="Rectangle_3314-2" data-name="Rectangle 3314" width="128" height="128" rx="11" transform="translate(15 5)" fill="#fff"/>
    </g>
    <g id="Group_6087" data-name="Group 6087" transform="translate(1045 2247)">
      <path id="Path_7584" data-name="Path 7584" d="M622.384,109.273q-17.253,0-34.505-.009a11.891,11.891,0,0,1-2.869-.227,3.464,3.464,0,0,1-1.649-6.04,3.44,3.44,0,0,0,1.421-2.771,3.066,3.066,0,0,1,2.674-3.108c.915-.195,1.224-.545,1.183-1.475a2.816,2.816,0,0,1,1.223-2.727c1.658-.876,1.623-2.249,1.611-3.773-.039-4.823-.029-9.646-.006-14.47A3.5,3.5,0,0,0,590.309,72c-1.873-1.963-2.663-4.678-4.652-6.723-1.352-1.39.389-4.016,2.642-4.277a6.5,6.5,0,0,0,3.195-1.38c9.528-6.956,19.093-13.863,28.579-20.876,1.7-1.261,2.951-1.36,4.677-.024,4.163,3.224,8.551,6.159,12.7,9.4,1.772,1.384,2.561.952,3.461-.811,1.112-2.178,2.442-4.243,3.617-6.39.727-1.329,1.617-1.553,2.908-.791,5.846,3.452,5.312,2.269,2.39,7.516-.974,1.749-1.962,3.494-3.012,5.2a1.52,1.52,0,0,0,.478,2.415c2.316,1.607,4.58,3.289,6.841,4.973a5.058,5.058,0,0,0,2.5.769,3.059,3.059,0,0,1,2.709,2.582,2.986,2.986,0,0,1-1.6,3.572c-1.056.508-1.672,1-1.568,2.281a2.374,2.374,0,0,1-1.019,2.142c-1.665,1.046-1.685,2.6-1.669,4.274.044,4.674.034,9.35,0,14.024a4.577,4.577,0,0,0,1.214,2.909c1.539,2.078,2.254,4.759,4.878,6.024.4.194.607,1.225.552,1.838a2.222,2.222,0,0,0,1.117,2.193,3.268,3.268,0,0,1,1.144,3.791,3.489,3.489,0,0,1-3.072,2.548,16.943,16.943,0,0,1-2.443.09q-17.252.007-34.5,0m.043-12.257c5.71,0,11.419-.018,17.129.013,1.308.008,2.374.013,2.191-1.825a2.681,2.681,0,0,1,1.475-2.581,2.525,2.525,0,0,0,1.266-2.591c-.038-4.6-.047-9.2,0-13.792.02-1.878.173-3.7-1.856-4.808-.429-.235-.624-.973-.831-1.516-.3-.8.252-2.053-1.323-2.115-1.344-.052-2.525.073-3.148,1.489-1.585,3.6-4.756,5.81-7.452,8.43-.558.543-1.179,1.319-2.1.832s-.63-1.406-.5-2.194c.335-2.046.63-4.1,1.083-6.124.4-1.768.073-2.513-1.983-2.479-6.968.114-13.94.075-20.91.018-1.452-.012-2.4.164-2.4,1.932a2.489,2.489,0,0,1-1.2,2.054c-1.287.774-1.414,1.922-1.4,3.248.038,4.671.051,9.344-.006,14.014-.02,1.626.091,3.05,1.625,4.071a2.6,2.6,0,0,1,1.078,2.349c-.143,1.6.768,1.591,1.909,1.585,5.784-.028,11.568-.013,17.352-.013M594.07,60.506l.229.428c10.008,0,20.017.023,30.025-.015,2.809-.011,6.023.937,8.322-.363,2.468-1.395,3.156-4.868,4.805-7.315.855-1.268.643-2.035-.591-2.907q-6.541-4.619-12.954-9.417c-1.186-.891-1.983-.739-3.1.091-6.5,4.806-13.051,9.537-19.586,14.294l-7.146,5.2M622.4,99.1c-10.681,0-21.361-.017-32.041.023-1.284,0-3.343-.583-3.3,1.492.041,1.873,2.021,1.3,3.246,1.3q32.041.046,64.082.021c.519,0,1.039,0,1.557-.018.86-.03,1.736-.179,1.8-1.233.068-1.139-.765-1.506-1.748-1.564-.665-.039-1.335-.025-2-.025q-15.8,0-31.6,0m-.293,7.785c11.578,0,23.155.022,34.732-.031,1.256-.006,3.4.689,3.357-1.365-.039-1.813-2.1-1.163-3.312-1.165q-34.4-.058-68.8-.027c-.594,0-1.189-.008-1.78.032-.866.057-1.7.255-1.646,1.364.047.968.815,1.134,1.6,1.167.667.027,1.335.024,2,.025h33.842m7.976-32.633c1.683-1.373,3.151-2.334,4.059-3.9q7.182-12.393,14.363-24.789c.669-1.149.756-1.854-.59-2.659-1.481-.885-1.9-.083-2.5.965q-6.916,12.035-13.884,24.04c-1.07,1.844-1.229,3.853-1.445,6.343M609.843,63.021q-9.463,0-18.925,0a15.64,15.64,0,0,0-2,.085,1.134,1.134,0,0,0-1.124,1.158c0,.728.484,1.047,1.142,1.112.516.051,1.037.058,1.556.058q18.813,0,37.627,0c.445,0,.891-.006,1.334-.042a1.721,1.721,0,0,0,1.743-1.7c-.026-1.146-1.14-.649-1.762-.653-6.531-.039-13.062-.024-19.593-.025m-11.7,19.271c0-2.513-.081-5.03.027-7.538.08-1.842-.925-2.022-2.362-2-1.315.02-2.3.1-2.276,1.856q.1,7.648,0,15.3c-.021,1.69.879,1.925,2.242,1.929,1.424,0,2.461-.171,2.391-2.007-.1-2.51-.024-5.026-.023-7.539m53.018-.049c0-2.442-.049-4.885.018-7.324.04-1.44-.339-2.215-1.974-2.173-1.439.037-2.439.214-2.418,2.015.056,5.03.043,10.061.01,15.092-.01,1.61.85,1.968,2.253,1.986,1.479.02,2.179-.472,2.13-2.051-.078-2.513-.021-5.03-.019-7.545m-2.87-16.807c2.216,0,4.432.02,6.648-.009.936-.013,2.219.113,2.164-1.234-.052-1.283-1.313-1.159-2.261-1.162q-6.094-.02-12.188,0a3.575,3.575,0,0,0-1.309.145,1.681,1.681,0,0,0-1.182,1.7c.106.783.938.538,1.481.545,2.215.03,4.432.013,6.648.01M595.987,94.213c-1.183,0-2.367-.036-3.547.013a1.369,1.369,0,0,0-1.481,1.343,1.256,1.256,0,0,0,1.236,1.335q3.652.114,7.308,0a1.287,1.287,0,0,0,1.249-1.335c.013-.92-.614-1.314-1.439-1.348-1.107-.046-2.217-.011-3.325-.011m52.944,0v.013c-1.183,0-2.367-.037-3.547.014a1.354,1.354,0,0,0-1.392,1.195,1.223,1.223,0,0,0,1.133,1.407,33.031,33.031,0,0,0,7.511.035,1.287,1.287,0,0,0,1.142-1.424,1.2,1.2,0,0,0-1.3-1.228c-1.181-.045-2.365-.012-3.548-.012m-53.2-23.848c1.184,0,2.368.028,3.55-.01.81-.026,1.484-.333,1.462-1.3a1.191,1.191,0,0,0-1.339-1.186q-3.549-.052-7.1,0a1.206,1.206,0,0,0-1.357,1.174c-.031.951.642,1.278,1.455,1.307,1.108.04,2.219.01,3.328.012m53.3-2.519c-1.177,0-2.356-.029-3.532.01-.806.026-1.487.357-1.479,1.286a1.2,1.2,0,0,0,1.325,1.2q3.531.054,7.063.006a1.2,1.2,0,0,0,1.355-1.16c.043-.954-.61-1.289-1.421-1.321-1.1-.044-2.207-.011-3.311-.017m1.463-6.911.225-.462q-1.5-1.092-2.991-2.184c-3.005-2.2-2.975-2.184-4.684,1.121-.537,1.038-.7,1.591.805,1.544,2.213-.069,4.43-.018,6.646-.018" transform="translate(-582.146 -37.762)" fill="#019444"/>
      <path id="Path_7585" data-name="Path 7585" d="M671.289,152.765c-3.186,0-6.372-.058-9.556.022-2.311.059-2.664-1.312-2.66-3.152s.355-3.175,2.668-3.15q9.444.1,18.89,0c2.122-.021,2.621,1.033,2.6,2.915s-.112,3.433-2.612,3.378c-3.109-.068-6.222-.016-9.333-.013m-.1-3.892c-2.659,0-5.317-.017-7.976.013-.614.007-1.546-.217-1.6.711-.059.986.888.8,1.5.8q7.975.031,15.951,0c.609,0,1.561.177,1.493-.812-.064-.916-1-.7-1.612-.7-2.584-.03-5.169-.013-7.754-.013" transform="translate(-624.635 -97.813)" fill="#019444"/>
      <path id="Path_7586" data-name="Path 7586" d="M671.289,136.7c-3.186,0-6.372-.058-9.556.022-2.311.059-2.664-1.312-2.66-3.152s.355-3.175,2.668-3.15q9.444.1,18.89,0c2.122-.021,2.621,1.033,2.6,2.915s-.112,3.433-2.612,3.378c-3.109-.068-6.222-.016-9.333-.013m-.1-3.892c-2.659,0-5.317-.017-7.976.013-.614.007-1.546-.217-1.6.711-.059.986.888.8,1.5.8q7.975.031,15.951,0c.609,0,1.561.177,1.493-.812-.064-.916-1-.7-1.612-.7-2.584-.03-5.169-.013-7.754-.013" transform="translate(-624.635 -88.939)" fill="#019444"/>
      <path id="Path_7587" data-name="Path 7587" d="M642.4,121.317c-.006.727-.071,1.349-.814,1.491s-.966-.415-1.267-.973c-1.267-2.353-3.29-3.1-5.262-2.01a2.47,2.47,0,0,0-1.524,2.484,2.248,2.248,0,0,0,1.867,1.957c1.2.361,2.45.573,3.665.9a4.066,4.066,0,0,1,3.319,3.46,4.427,4.427,0,0,1-2.112,4.771c-1.126.688-2.429,1.1-2.507,2.762-.021.436-.545.671-1.049.6a.987.987,0,0,1-.892-.866c-.182-1.283-1.095-1.808-2.127-2.323a4.486,4.486,0,0,1-2.4-3.05c-.2-.789-.163-1.558.722-1.838.834-.264,1.2.394,1.4,1.065.7,2.327,2.5,2.508,4.451,2.229a2.568,2.568,0,0,0,2.366-2.312,2.277,2.277,0,0,0-1.955-2.365c-1.209-.343-2.451-.569-3.663-.9a4.227,4.227,0,0,1-3.4-3.669,4.423,4.423,0,0,1,2.154-4.549c1.114-.72,2.384-1.186,2.6-2.765a.837.837,0,0,1,1.044-.612.941.941,0,0,1,.848.9c0,1.308.916,1.689,1.885,2.149a4.258,4.258,0,0,1,2.65,3.46" transform="translate(-609.223 -80.309)" fill="#019444"/>
    </g>
  </g>
</svg>
