<svg xmlns="http://www.w3.org/2000/svg" xmlns:xlink="http://www.w3.org/1999/xlink" width="158" height="158" viewBox="0 0 158 158">
  <defs>
    <filter id="Rectangle_3313" x="0" y="0" width="158" height="158" filterUnits="userSpaceOnUse">
      <feOffset dy="10" input="SourceAlpha"/>
      <feGaussianBlur stdDeviation="5" result="blur"/>
      <feFlood flood-opacity="0.09"/>
      <feComposite operator="in" in2="blur"/>
      <feComposite in="SourceGraphic"/>
    </filter>
  </defs>
  <g id="Group_6187" data-name="Group 6187" transform="translate(-740 -2213.499)">
    <g transform="matrix(1, 0, 0, 1, 740, 2213.5)" filter="url(#Rectangle_3313)">
      <rect id="Rectangle_3313-2" data-name="Rectangle 3313" width="128" height="128" rx="11" transform="translate(15 5)" fill="#fff"/>
    </g>
    <g id="Group_6085" data-name="Group 6085" transform="translate(779.937 2244.49)">
      <path id="Path_7551" data-name="Path 7551" d="M404.858,128.585c-4.514,0-9.028-.009-13.543,0-2.737.008-4.869-1.039-6.022-3.591a5.712,5.712,0,0,1,1.18-6.659c.454-.489.381-.775-.015-1.261-2.363-2.905-2.343-5.439.065-8.421.382-.472.324-.722-.028-1.166-2.419-3.053-2.4-5.391.073-8.517.392-.494.306-.769-.073-1.166a5.667,5.667,0,0,1-1.158-6.765,6.086,6.086,0,0,1,5.962-3.527c5.147,0,10.294-.028,15.441.017,1.105.009,1.532-.307,1.643-1.466a87.89,87.89,0,0,1,1.774-10.854c.187-.831.052-1.192-.843-1.414a4.1,4.1,0,0,1-3.237-3.779,4.186,4.186,0,0,1,2.323-4.292,2.241,2.241,0,0,0,1.194-1.219.264.264,0,0,1,.06-.111c2.3-2.1,4.551-4.324,8.018-4.111a1.9,1.9,0,0,0,1.911-.939,4.573,4.573,0,0,1,3.894-2.222,2.286,2.286,0,0,0,1.293-.439,1.994,1.994,0,0,1,.645-.392,16.953,16.953,0,0,0,4.339-1.861,1.935,1.935,0,0,1,1.463-.237c1.966.857,4.06.6,6.088.878a2.021,2.021,0,0,0,1.42-.216c2.428-1.384,4.3-.945,6.117,1.216a3.846,3.846,0,0,0,3.258,1.544,3.725,3.725,0,0,1,3.831,1.963,8.275,8.275,0,0,0,3.028,3.092,4.842,4.842,0,0,1,1.743,1.958,2.129,2.129,0,0,0,1.053,1.025,4.264,4.264,0,0,1,2.434,4.241,4.081,4.081,0,0,1-3.139,3.86c-1,.28-1.117.714-.917,1.623a88.988,88.988,0,0,1,2.165,21.974,61.953,61.953,0,0,1-2.141,14.479,2.013,2.013,0,0,0,.792,2.54,14.513,14.513,0,0,1,5.693,8.276c.913,4.065-1.7,6.66-5.771,5.7a14.49,14.49,0,0,1-8.113-5.51,1.815,1.815,0,0,0-2.476-.765,35.828,35.828,0,0,1-20.017,1.776,1.238,1.238,0,0,0-1.666.832,5.967,5.967,0,0,1-5.943,3.9q-6.9.01-13.8,0m28.213-54.508c-6.329,0-12.658.019-18.987-.022-.9-.005-1.26.262-1.44,1.137a101.727,101.727,0,0,0-1.76,10.729c-.152,1.58-.151,1.557,1.461,1.593,2.57.058,5.163-.27,7.7.187a3.123,3.123,0,0,0,2.747-.644c5.653-4.274,11.812-4.983,18.05-1.677,6.32,3.35,9.277,8.881,8.828,16.078a16.6,16.6,0,0,1-23.707,13.62c-.735-.351-1.021-.246-1.6.431-1.312,1.533-1.55,2.851.005,4.281a.227.227,0,0,1,.057.112c.241,1.035,1.012,1.3,1.949,1.479A35.727,35.727,0,0,0,446.5,119.4c2.134-.85,2.129-.84,3.488,1.051,1.948,2.708,4.337,4.854,7.72,5.544,2.032.415,2.994-.6,2.55-2.64-.755-3.472-2.988-5.913-5.831-7.8a2.227,2.227,0,0,1-1.047-2.95,60.021,60.021,0,0,0,2.493-16.331,90.685,90.685,0,0,0-2.2-20.709,1.582,1.582,0,0,0-1.862-1.5c-6.245.041-12.489.019-18.734.016m14.223,24.686c-.149-4.229-2.566-8.589-7.6-11.219-5.127-2.678-10.154-2.172-14.942,1.048-.875.589-1.136,1.074-.509,2.127a5.576,5.576,0,0,1-.7,6.8c-.688.76-.548,1.147.048,1.857,1.566,1.863,2.177,4.166.857,6.212-1.195,1.852-1.4,3.131.005,4.915a6.9,6.9,0,0,0,2.132,2.171c9.363,4.862,20.665-1.949,20.712-13.908m-42.42,20.195q-5.25,0-10.5,0c-1.266,0-2.533-.035-3.8.024a3.415,3.415,0,0,0-3.295,2.816,3.579,3.579,0,0,0,1.665,3.8,5.025,5.025,0,0,0,2.686.57q13.158-.007,26.317,0a6.909,6.909,0,0,0,2.125-.263,3.36,3.36,0,0,0,2.425-3.2,3.487,3.487,0,0,0-3.709-3.736c-4.639-.027-9.278-.008-13.918-.012m-.09-21.826c4.723,0,9.445.022,14.167-.01a3.315,3.315,0,0,0,3.548-3.447,3.362,3.362,0,0,0-3.563-3.581c-9.4-.029-18.805-.014-28.208-.018a3.277,3.277,0,0,0-2.664,1.223,3.393,3.393,0,0,0-.539,3.785,3.322,3.322,0,0,0,3.218,2.046q7.02.007,14.04,0m.1,19.264v.007c4.512,0,9.024.008,13.536,0,2.671-.006,4.1-1.268,4.08-3.564-.017-2.205-1.49-3.488-4.042-3.5-2.066-.01-4.133,0-6.2,0q-10.5,0-21-.006a3.7,3.7,0,0,0-3.26,1.32,3.426,3.426,0,0,0-.428,3.8,3.294,3.294,0,0,0,3.144,1.95c4.723-.011,9.446,0,14.168,0m-.02-16.688c-4.722,0-9.444-.024-14.166.011a3.508,3.508,0,0,0-3.519,3.563,3.455,3.455,0,0,0,3.474,3.463q14.229.046,28.458,0a3.285,3.285,0,0,0,3.387-3.6,3.366,3.366,0,0,0-3.6-3.423c-4.679-.035-9.359-.011-14.039-.012m7.574-34.934.124.306h41.458c-.555-.381-.917-.593-1.233-.857a2.829,2.829,0,0,0-1.144-.761A1.713,1.713,0,0,1,450.2,61.8c-.179-1.208-1.141-2.02-2.1-1.668a2.4,2.4,0,0,1-3-.765,1.77,1.77,0,0,0-.917-.383,1.708,1.708,0,0,1-1.2-1.006c-.892-1.781-2.267-1.953-3.489-.41-.654.824-1.322,1.007-2.14.321a1.958,1.958,0,0,0-2.651-.151,1.351,1.351,0,0,1-2.084-.324c-.424-.537-1.143-1.022-1.63-.684a24.657,24.657,0,0,1-4.959,2.133.462.462,0,0,0-.168.186,1.625,1.625,0,0,1-1.97.7c-.724-.174-1.62-.154-1.925.561-.511,1.2-1.551,1.682-2.479,2.372a1.5,1.5,0,0,1-1.734.275c-.675-.335-1.546-.516-2.03.022a4.418,4.418,0,0,1-3.287,1.788m20.7,6.747q10.749,0,21.5,0a10.1,10.1,0,0,0,1.263-.027,1.776,1.776,0,0,0,1.773-1.787,1.813,1.813,0,0,0-1.655-2.033,7.721,7.721,0,0,0-1.387-.061q-21.5,0-43,0a7.488,7.488,0,0,0-1.509.09,1.794,1.794,0,0,0-1.519,2.125c.123,1.121.893,1.685,2.4,1.687q11.066.012,22.132,0" transform="translate(-384.695 -54.068)" fill="#019444"/>
      <path id="Path_7552" data-name="Path 7552" d="M482.151,133.848c.008.89-.225,1.513-1.062,1.6s-1.211-.454-1.339-1.206a1.9,1.9,0,0,0-1.893-1.838,1.944,1.944,0,0,0-.818,3.753,3.991,3.991,0,0,0,.98.208,4.451,4.451,0,0,1,2.046,8.236,4.027,4.027,0,0,0-1.293,1.321,1.117,1.117,0,0,1-2.086-.062,3.113,3.113,0,0,0-1.312-1.29,4.273,4.273,0,0,1-2.047-3.318c-.1-.755.108-1.38.925-1.549a1.163,1.163,0,0,1,1.456,1.048,2.254,2.254,0,0,0,1.3,1.881,1.968,1.968,0,1,0,1.365-3.689,5.665,5.665,0,0,0-1.115-.183,4.466,4.466,0,0,1-3.862-3.5,4.345,4.345,0,0,1,1.974-4.685,3.379,3.379,0,0,0,1.322-1.282,1.1,1.1,0,0,1,2.074-.038,3.76,3.76,0,0,0,1.319,1.293,4.282,4.282,0,0,1,2.068,3.3" transform="translate(-429.318 -91.583)" fill="#019444"/>
    </g>
  </g>
</svg>
