<svg xmlns="http://www.w3.org/2000/svg" width="155.318" height="155.138" viewBox="0 0 155.318 155.138">
  <g id="Group_6081" data-name="Group 6081" transform="translate(-324.764 -6231.194)">
    <path id="Path_7497" data-name="Path 7497" d="M77.622.056c45.9-.051,81.391,38.008,78.281,83.056-2.577,37.3-32.684,68.172-69.9,71.669A77.847,77.847,0,0,1,9.44,113.722c-1.433-2.68-3.064-5.356-2.455-8.648a9.263,9.263,0,0,1,7.766-7.757c4.783-.806,8.452.852,10.7,5.215a67.082,67.082,0,0,0,15.409,19.886c20.429,18.015,54.685,18.027,75.015-.192,19.564-17.534,25.671-41.161,16.978-65.686-7.219-20.368-28.8-36.258-50.339-37.181-25.9-1.11-44.727,9.994-56.866,32.742-2.733,5.12-8.4,7.2-13.4,4.9-4.7-2.163-6.674-7.465-4.14-12.793C16.558,26.443,30,13.75,48.033,5.956a70.691,70.691,0,0,1,15.8-4.741A62.41,62.41,0,0,1,77.622.056" transform="translate(323.989 6231.194)"/>
    <path id="Path_7498" data-name="Path 7498" d="M85.56,33.255c8.468.291,19.472,4.284,28.614,12.976,4.263,4.053,4.784,9.35,1.275,13.361-3.663,4.188-9.719,4.54-14.089.484a30.865,30.865,0,0,0-18.147-7.987c-10.45-1.2-23.522,6.127-27.836,15.686-1.115,2.472-.888,4.72,1.437,6.119A4.6,4.6,0,0,0,63.336,72.6c2.042-2.752,3.885-5.616,6.869-7.55a19.712,19.712,0,0,1,27.526,5.608c6.018,8.911,3.368,20.8-6.031,27.049-8.889,5.913-20.666,3.447-26.833-5.622-.482-.709-.93-1.443-1.45-2.123-1.773-2.309-4.077-2.752-6.5-1.341C54.3,90.148,54.3,92.461,55.531,95c5.09,10.523,18.392,17.162,30.183,15.148a31.025,31.025,0,0,0,15.579-7.7c4.734-4.18,11.569-3.516,14.814,1.306,2.7,4.007,2.213,8.553-1.661,12.272a47.18,47.18,0,0,1-27,13.011c-28.935,3.9-55.469-19.349-54.432-49.93.86-25.363,22.335-45.927,52.546-45.847" transform="translate(321.036 6227.436)" fill="#019444"/>
    <path id="Path_7499" data-name="Path 7499" d="M11.213,74.673C18,74.642,22.895,79.484,22.86,86.2c-.03,5.886-5.254,11.2-11,11.187A11.619,11.619,0,0,1,0,85.883a11.187,11.187,0,0,1,11.213-11.21" transform="translate(324.764 6222.753)" fill="#019444"/>
    <path id="Path_7500" data-name="Path 7500" d="M127.55,74.68a11.3,11.3,0,0,1,11.274,11.57,11.47,11.47,0,0,1-11.5,11.039,11.308,11.308,0,0,1-11.375-11.471c-.03-6.353,5.008-11.192,11.6-11.138" transform="translate(311.658 6222.753)"/>
  </g>
</svg>
