<svg id="marketwatch-logo" xmlns="http://www.w3.org/2000/svg" width="264.005" height="37.832" viewBox="0 0 264.005 37.832">
  <path id="Path_7489" data-name="Path 7489" d="M34.937,17.313a6.649,6.649,0,0,1-6.321,5.465,4.306,4.306,0,0,1-4.306-5.364,6.6,6.6,0,0,1,6.271-5.465,4.231,4.231,0,0,1,4.357,5.364M36.952,6.735,36.5,8.951A5.717,5.717,0,0,0,30.731,6.03,13.448,13.448,0,0,0,17.988,17.363C16.88,23.432,19.8,28.746,26.526,28.746A8.412,8.412,0,0,0,33.3,25.724l-.4,2.267h6.271l3.954-21.18h-6.17Zm9.822.025h5.918l-.4,2.216A6.623,6.623,0,0,1,58.232,6.03L57.074,12.4c-2.972,0-5.037.655-5.717,3.9L49.191,27.94H42.82Z" transform="translate(26.966 9.08)" fill="#363333"/>
  <path id="Path_7490" data-name="Path 7490" d="M0,0H264.006V37.776H0Z" fill="none"/>
  <path id="Path_7491" data-name="Path 7491" d="M38.815,2.99,33.35,32.481h6.372L41.61,22.256h.1l4.08,10.225h7.177L47.428,20.594l9.7-9.293h-7.48l-7.329,7.681h-.1L45.187,2.99Z" transform="translate(50.639 4.54)" fill="#363333"/>
  <path id="Path_7492" data-name="Path 7492" d="M48.519,14.966a5.943,5.943,0,0,1,5.515-3.627,3.677,3.677,0,0,1,4.105,3.627ZM54.941,6a14.229,14.229,0,0,0-13.2,11.434,9.091,9.091,0,0,0,9.142,11.232,11.862,11.862,0,0,0,6.372-1.914,15.992,15.992,0,0,0,5.314-5.415H56.1A5.49,5.49,0,0,1,51.844,23.3a3.778,3.778,0,0,1-4.206-4H63.529a7.555,7.555,0,0,0,.453-1.662C65.191,11.037,61.414,6,54.941,6" transform="translate(62.996 9.11)" fill="#363333"/>
  <path id="Path_7493" data-name="Path 7493" d="M0,0H264.006V37.776H0Z" fill="none"/>
  <path id="Path_7494" data-name="Path 7494" d="M36.517,2.99l-11.182,16.8h-.1V2.99H19.82L0,32.481H7.681l11.131-16.8h.1v16.8h5.465l11.131-16.8h.1v16.8h6.372V2.99ZM143.071,11.3h-4l1.158-6.271H134.66l-.453,2.518a4.382,4.382,0,0,1-4.558,3.853l-.957,4.684h3.148l-3.047,16.395h6.321l3.047-16.395h4.055Z" transform="translate(0 4.54)" fill="#363333"/>
  <path id="Path_7495" data-name="Path 7495" d="M159.474,7.555H165.8l-1.914,10.5a6.623,6.623,0,0,1,6.069-2.947,6.472,6.472,0,0,1,5.364,2.367c1.36,2.065,1.209,3.954.5,7.732l-2.166,11.837h-6.321l2.115-11.534c.2-1.007.806-4.458-2.518-4.458a4.458,4.458,0,0,0-4.407,4.13L160.33,37.021h-6.22Zm-26.645,8.286h-3.9l1.083-6.271h-5.566l-.554,2.418a4.382,4.382,0,0,1-4.558,3.853l-.856,4.785H121.6l-3.022,16.395H124.9l3.022-16.395h4.055Zm-30.5,16.017a6.649,6.649,0,0,0,6.447-5.465,4.231,4.231,0,0,0-4.357-5.364,6.6,6.6,0,0,0-6.271,5.465,4.306,4.306,0,0,0,4.306,5.364m10.678,5.037h-6.4l.4-2.267a8.411,8.411,0,0,1-6.875,3.148c-6.724,0-9.671-5.314-8.537-11.383A13.448,13.448,0,0,1,104.447,15.11a5.717,5.717,0,0,1,5.666,2.972l.453-2.216h6.271ZM100.971,0,88.631,7.555h3.5L80.95,24.328V7.555H75.384L64.2,24.328V7.555H57.73V37.021h5.515L74.427,20.147V37.021h5.465L99.762,7.555h3.123Zm52.534,28.987a14.355,14.355,0,0,1-12.743,8.789,9.117,9.117,0,0,1-9.318-11.434A14,14,0,0,1,144.817,15.11a8.966,8.966,0,0,1,9.545,8.915H147.94a3.752,3.752,0,0,0-4.055-3,6.17,6.17,0,0,0-6.019,5.364,4.105,4.105,0,0,0,4.055,5.415,6.044,6.044,0,0,0,5.037-2.821h6.472Z" transform="translate(87.658)" fill="#4db84d"/>
</svg>
